<svg width="24" height="35" viewBox="0 0 24 35" fill="none" xmlns="http://www.w3.org/2000/svg">
<path fill-rule="evenodd" clip-rule="evenodd" d="M11.3116 30.2992C8.83539 30.2438 6.33107 30.5546 3.90613 30.8747C3.38427 30.9454 3.0023 31.4399 3.09001 31.9676C3.14166 32.5055 3.61673 32.8819 4.10244 32.8209C6.45227 32.5086 8.87925 32.1981 11.241 32.2575C11.7449 32.2726 12.1813 31.8436 12.2057 31.3017C12.2301 30.7603 11.8156 30.3147 11.3116 30.2992Z" fill="#A15842"/>
<path fill-rule="evenodd" clip-rule="evenodd" d="M16.019 18.7649C11.3439 15.7903 6.32124 13.4548 1.69284 10.3539C1.27622 10.0601 0.692919 10.1958 0.416613 10.6497C0.140397 11.1039 0.247803 11.7134 0.700573 11.9975C5.33178 15.1101 10.3571 17.4569 15.0351 20.4433C15.4857 20.7183 16.0652 20.5675 16.3391 20.1034C16.5769 19.6494 16.4696 19.0399 16.019 18.7649Z" fill="#A15842"/>
<path fill-rule="evenodd" clip-rule="evenodd" d="M19.3361 1.57375C19.9893 3.82231 20.6422 6.07093 21.2954 8.31987C21.4202 8.84162 21.9506 9.12732 22.4506 8.96533C22.9506 8.80296 23.2056 8.26129 23.0808 7.73916C22.4267 5.48681 21.773 3.23479 21.119 0.982815C20.9581 0.470822 20.4285 0.187735 19.9292 0.352756C19.4661 0.508018 19.1753 1.06213 19.3361 1.57375Z" fill="#A15842"/>
</svg>
