<svg width="336" height="23" viewBox="0 0 336 23" fill="none" xmlns="http://www.w3.org/2000/svg">
<mask id="mask0_1_32" style="mask-type:alpha" maskUnits="userSpaceOnUse" x="0" y="0" width="336" height="23">
<rect width="336" height="23" transform="matrix(-1 0 0 1 336 0)" fill="#C4C4C4"/>
</mask>
<g mask="url(#mask0_1_32)">
<path d="M443.265 -91.114L441.99 -91.4172L444.471 -91.8518L443.282 -92.17C442.089 -92.1671 440.544 -91.6903 439.703 -91.9436C439.601 -92.1889 440.899 -92.2676 441.231 -92.463C441.524 -92.6633 441.763 -92.8623 441.946 -93.0576C441.296 -93.0555 440.582 -93.0083 439.846 -92.9187C438.856 -92.7723 437.885 -92.7012 437.04 -92.7131C435.312 -92.6736 433.642 -92.713 431.763 -92.7043L432.388 -93.2946L429.967 -93.1565C429.711 -93.1115 429.405 -93.1838 429.152 -93.1282C427.054 -92.6575 426.166 -92.914 425.159 -93.1267C424.952 -93.1817 424.703 -93.2228 424.419 -93.2489C421.62 -93.1361 419.095 -92.4764 416.574 -92.1377C416.1 -92.0512 415.645 -91.9402 415.241 -91.8125C414.365 -91.5644 413.389 -91.3618 412.405 -91.2232C411.42 -91.0847 410.457 -91.0147 409.605 -91.0196C407.72 -91.0251 405.591 -90.8609 403.423 -90.543C402.778 -90.4383 402.133 -90.3693 401.529 -90.3402C400.924 -90.3112 400.374 -90.3228 399.912 -90.3744L398.447 -90.0374C397.811 -90.1741 397.006 -90.2492 396.079 -90.2579C395.152 -90.2666 394.122 -90.209 393.054 -90.0883C391.915 -89.9574 390.758 -89.8692 389.576 -89.7309C387.135 -89.4663 384.76 -89.3046 382.524 -89.2506C379.193 -89.0905 375.939 -88.9668 372.579 -88.7673C370.477 -88.671 368.429 -88.618 366.448 -88.6087C364.074 -88.571 361.506 -88.3887 358.868 -88.0704C358.993 -87.7718 360.15 -87.8601 360.926 -87.8702C363.431 -87.9198 365.994 -88.0484 368.57 -88.145C369.731 -88.1827 370.86 -88.197 371.95 -88.1877C373.773 -88.2001 375.694 -88.2797 377.681 -88.425C380.821 -88.585 383.86 -88.6619 386.767 -88.6549C386.995 -88.6431 387.204 -88.6222 387.39 -88.5924C387.429 -88.5667 387.437 -88.5342 387.413 -88.4981C387.388 -88.462 387.333 -88.4235 387.252 -88.3863C387.171 -88.3491 387.067 -88.3145 386.949 -88.2857C386.832 -88.2568 386.705 -88.2348 386.581 -88.2217C385.427 -88.0194 384.186 -87.8021 383.097 -87.7715C383.055 -87.7692 383.01 -87.764 382.966 -87.7562C382.921 -87.7485 382.879 -87.7383 382.841 -87.7265C380.403 -87.2994 378.398 -87.3717 376.499 -87.3022C373.346 -87.1143 370.306 -87.0266 367.426 -87.0403C366.991 -87.0393 366.521 -87.0149 366.033 -86.9679C363.017 -86.7773 360.196 -86.756 357.704 -86.9049C356.678 -86.9426 355.724 -87.0273 354.622 -87.0288C353.943 -87.0346 353.351 -87.0886 352.884 -87.1877C352.416 -87.2867 352.082 -87.4287 351.901 -87.6051C351.436 -87.5122 350.963 -87.4295 350.489 -87.3578C350.206 -87.3168 349.935 -87.3059 349.73 -87.3274C349.525 -87.3488 349.402 -87.401 349.385 -87.4733C349.3 -87.676 349.946 -87.7777 350.507 -87.8645C350.169 -87.9079 349.788 -87.9335 349.373 -87.9405C347.037 -87.9868 344.532 -87.9322 341.911 -87.7778C339.877 -87.593 338.253 -87.7434 336.112 -87.4828C335.856 -87.4379 335.644 -87.5039 335.408 -87.5197C334.792 -87.6032 334.025 -87.6219 333.173 -87.5744C332.321 -87.5268 331.41 -87.4143 330.518 -87.2467C329.408 -87.7046 327.01 -87.1815 325.239 -87.1345C324.694 -86.9016 325.32 -86.9425 325.347 -86.8785C325.373 -86.8146 325.347 -86.8786 325.561 -86.916C327.329 -86.5862 329.751 -86.5143 332.488 -86.7104C332.994 -86.7096 333.476 -86.6945 333.93 -86.6655C334.617 -86.6243 335.392 -86.6284 336.22 -86.6776C337.125 -86.7138 337.957 -86.6966 338.675 -86.6269C339.088 -86.6281 339.437 -86.5932 339.69 -86.5255C339.943 -86.4578 340.092 -86.3594 340.123 -86.2396C339.847 -86.1473 339.541 -86.0627 339.217 -85.9894C337.527 -85.7 335.841 -85.5802 334.491 -85.6536C332.143 -85.78 329.348 -85.6566 326.851 -85.6998C325.162 -85.7173 323.366 -85.6675 321.495 -85.5513C321.495 -85.5513 321.544 -85.434 321.549 -85.4233C321.328 -85.3725 321.095 -85.3318 320.864 -85.3034C320.864 -85.3034 320.864 -85.3034 320.842 -85.3567C320.945 -85.4079 321.084 -85.4561 321.243 -85.4956L321.799 -85.5931C321.421 -85.6184 321.068 -85.6939 320.674 -85.6478C319.844 -85.5621 319.051 -85.5259 318.342 -85.5414C317.634 -85.5569 317.024 -85.6237 316.55 -85.7379C315.71 -85.8843 314.666 -85.9508 313.484 -85.9333C312.579 -85.9492 311.706 -85.9836 310.87 -86.0361C310.87 -86.0361 310.816 -86.1641 310.421 -86.2321C310.795 -86.3159 311.186 -86.3844 311.575 -86.4344C313.268 -86.5592 314.965 -86.6734 316.628 -86.7587C317.24 -86.768 317.816 -86.7537 318.344 -86.7161C319.807 -86.6722 321.451 -86.7345 323.18 -86.8995C323.18 -86.8995 323.522 -86.9595 323.693 -86.9895C323.208 -87.2707 321.536 -86.9891 320.859 -87.1796C320.447 -87.1762 319.723 -87.1522 319.747 -87.2024C319.804 -87.2693 319.811 -87.3314 319.767 -87.3844C319.724 -87.4374 319.631 -87.4798 319.496 -87.5087C319.361 -87.5375 319.187 -87.5521 318.987 -87.5514C318.786 -87.5506 318.563 -87.5346 318.335 -87.5044C316.432 -87.3409 314.638 -87.2955 313.066 -87.3708C312.469 -87.3694 311.801 -87.3209 311.209 -87.3088C310.847 -87.2942 310.516 -87.3023 310.235 -87.3327C308.805 -87.5565 306.881 -87.5728 304.752 -87.3793C303.723 -87.3097 302.761 -87.3004 301.917 -87.3518C301.316 -87.361 301.061 -87.202 300.634 -87.127L298.818 -86.969L301.15 -86.7711C300.651 -86.3174 300.255 -86.1679 299.44 -86.1396C298.252 -86.0969 297.095 -86.0776 295.975 -86.0819C295.147 -86.0856 294.464 -86.1833 293.343 -86.0098C293.145 -85.9815 292.954 -85.9723 292.803 -85.9838C291.49 -86.1379 289.909 -86.1732 288.168 -86.0875C287.267 -86.376 285.731 -86.0955 284.311 -85.8695C283.852 -86.0868 284.683 -86.1865 285.178 -86.3191C283.99 -86.3056 282.793 -86.3133 281.567 -86.2816C281.198 -86.2931 280.777 -86.2734 280.335 -86.2239C279.894 -86.1743 279.445 -86.0964 279.024 -85.9962C278.818 -85.9314 278.571 -85.8827 278.332 -85.8601C278.094 -85.8375 277.883 -85.8428 277.743 -85.8748C277.107 -85.9694 276.087 -85.8823 275.561 -86.042C275.374 -86.0787 275.107 -86.0838 274.807 -86.0564C274.507 -86.0291 274.195 -85.971 273.925 -85.8926C274.22 -85.8682 274.483 -85.8296 274.708 -85.7779C275.513 -85.6099 275.217 -85.3292 274.194 -84.9211C272.624 -84.9435 271.02 -84.9371 269.564 -85.0141C268.753 -85.0831 267.759 -85.0615 266.694 -84.9517C265.628 -84.8419 264.534 -84.6483 263.535 -84.3926C263.173 -84.2942 262.76 -84.2261 262.379 -84.2018C261.998 -84.1774 261.676 -84.1986 261.478 -84.2611C261.354 -84.3334 261.316 -84.4249 261.366 -84.5277L262.393 -84.7075C262.393 -84.7075 262.352 -84.8035 262.343 -84.8248L260.868 -84.841C260.087 -84.8415 259.272 -84.8133 258.534 -84.8213C257.45 -84.8749 256.213 -84.845 254.898 -84.7336C253.685 -84.6194 252.494 -84.533 251.333 -84.4753C250.21 -84.4159 249.396 -84.6053 248.328 -84.6355C247.52 -84.6583 246.631 -84.6339 245.695 -84.5634C244.079 -84.4382 242.595 -84.438 241.38 -84.5627C239.962 -83.8909 239.274 -83.7816 237.958 -83.9632L237.339 -84.015L237.17 -83.8709L236.698 -83.9026C235.814 -83.9308 234.929 -83.9591 234.007 -83.9691C232.724 -83.9068 231.339 -83.739 229.987 -83.4823C229.73 -83.4373 229.381 -83.2845 229.156 -83.1649C228.93 -83.0453 228.439 -82.6845 228.078 -82.4496C228.471 -82.2781 228.907 -82.1141 229.219 -81.917C229.251 -81.8833 229.248 -81.8432 229.21 -81.7998C229.173 -81.7564 229.103 -81.7109 229.005 -81.6671C228.907 -81.6232 228.785 -81.5822 228.648 -81.5473C228.51 -81.5125 228.362 -81.4847 228.215 -81.4662C227.927 -81.4265 227.643 -81.4 227.375 -81.3878C226.053 -81.3668 224.788 -81.3824 223.591 -81.4344C223.154 -81.5078 222.555 -81.5147 221.89 -81.4542C221.225 -81.3937 220.532 -81.2691 219.92 -81.1003C218.354 -81.2017 216.533 -81.1717 214.585 -81.0126C212.524 -81.1094 210.035 -80.9136 208.11 -81.1257C208.155 -81.0191 207.956 -80.8355 207.679 -80.7297C207.241 -80.569 206.744 -80.4201 206.211 -80.2893L202.14 -80.0339C201.988 -79.9025 201.797 -79.7696 201.571 -79.6367C201.417 -79.5318 201.147 -79.4291 200.82 -79.3504C200.493 -79.2717 200.134 -79.2233 199.82 -79.2153C199.01 -79.1764 198.33 -79.2634 197.364 -79.0484C198.852 -78.8451 200.858 -78.8721 203.026 -79.1246C205.062 -79.3166 207.021 -79.4125 208.829 -79.4089C209.425 -79.4103 210.211 -79.3991 210.397 -79.283C210.81 -78.9547 211.89 -79.0066 213.15 -79.0672C214.14 -79.1335 215.045 -79.126 215.789 -79.0455C216.533 -78.9649 217.096 -78.8136 217.431 -78.6038C217.516 -78.4012 217.313 -78.2283 216.444 -78.1104L212.831 -77.6377C212.298 -77.6984 211.793 -77.7704 211.317 -77.8532C210.516 -77.9632 209.526 -77.9934 208.425 -77.9414C207.324 -77.8895 206.141 -77.7568 204.969 -77.5536C204.37 -77.4487 203.772 -77.3438 203.338 -77.3936C202.957 -77.4509 202.606 -77.5195 202.288 -77.5988C202.223 -77.652 202.198 -77.7132 202.212 -77.7801C201.981 -77.749 201.75 -77.7086 201.527 -77.6602C199.743 -77.0958 198.362 -77.1056 197.107 -77.252C196.767 -77.2955 196.509 -77.3647 196.165 -77.4188C195.821 -77.473 195.699 -77.5433 195.387 -77.5229C192.893 -77.3378 192.175 -77.956 190.073 -77.9311C189.971 -77.9553 189.907 -77.9914 189.889 -78.0361C189.87 -78.0808 189.897 -78.1327 189.966 -78.1871C190.115 -78.2361 190.286 -78.2783 190.466 -78.3097C190.645 -78.3411 190.826 -78.3608 190.993 -78.3669C191.96 -78.4462 192.814 -78.4219 193.409 -78.2981C193.83 -78.2475 194.277 -78.2072 194.745 -78.1774L196.849 -79.0726C194.811 -78.9905 192.883 -78.9911 191.11 -79.0742C190.723 -79.1209 190.068 -79.0404 189.523 -79.0252L185.518 -78.9415C184.695 -78.9346 183.993 -79.0749 182.844 -78.7478C182.844 -78.7478 182.086 -78.695 181.884 -78.7397C181.681 -78.7843 180.785 -79.0621 180.25 -79.2431C179.628 -79.1915 178.768 -79.0523 178.382 -79.099C177.706 -79.2136 177.121 -79.3606 176.637 -79.5373L174.218 -79.2851C174.22 -79.061 174.309 -78.8502 174.481 -78.6559C174.67 -78.4685 174.663 -78.2436 174.462 -77.9995C174.261 -77.7554 173.872 -77.4991 173.325 -77.2515L170.936 -75.9401C170.546 -75.8523 170.13 -75.7932 169.746 -75.7708C169.361 -75.7484 169.025 -75.7638 168.784 -75.815C167.757 -75.9668 166.605 -76.0855 165.577 -76.2374C164.251 -76.0051 164.592 -75.6298 163.628 -75.3007L160.506 -74.7536C160.03 -74.2467 159.544 -73.761 160.993 -73.5913C161.281 -73.5616 161.087 -73.3674 161.35 -73.2875C160.223 -72.9071 158.985 -72.7932 157.844 -72.5589C157.394 -72.3903 157.018 -72.2119 156.733 -72.0323C156.421 -71.7618 155.788 -71.4855 154.97 -71.2631C154.153 -71.0406 153.217 -70.8899 152.365 -70.8434C150.935 -70.7009 149.471 -70.487 148.038 -70.2112C147.549 -70.1153 147.046 -70.0455 146.563 -70.0063C146.081 -69.9672 145.63 -69.9597 145.241 -69.9844C143.855 -70.0278 142.682 -70.1771 141.798 -70.4226C140.923 -70.631 139.745 -70.7314 138.369 -70.7148C136.017 -70.3026 135.543 -69.6815 134.119 -69.1345L136.578 -69.0732C136.667 -68.8599 136.504 -68.591 137.512 -68.5959C138.52 -68.6008 138.009 -68.3968 137.682 -68.1907C137.567 -68.087 137.342 -67.9804 137.046 -67.8888C136.75 -67.7973 136.4 -67.7265 136.056 -67.6883L133.963 -67.4246C133.221 -67.3242 132.502 -67.2813 131.887 -67.3007C131.271 -67.32 130.782 -67.4009 130.474 -67.5343C130.119 -67.661 129.63 -67.7467 129.037 -67.7861C128.28 -67.8895 127.658 -68.0432 127.193 -68.2415L124.238 -67.9526C124.112 -68.1519 123.706 -68.2915 123.088 -68.3481C122.471 -68.4046 121.679 -68.3746 120.848 -68.263L118.856 -68.0857C116.642 -67.8922 116.156 -67.9559 115.507 -68.5176L118.163 -69.5209C117.777 -69.7852 117.404 -70.0175 117.032 -70.2498C117.693 -70.5803 118.576 -70.8929 119.59 -71.1559C120.537 -71.4385 121.51 -71.7122 122.506 -71.9759C123.587 -72.2454 124.729 -72.4798 126.071 -72.7835C126.305 -72.8818 126.645 -73.0559 127.08 -73.2237C127.515 -73.3867 127.969 -73.5465 128.44 -73.7024C128.351 -73.9157 128.271 -74.1076 128.442 -74.3552C127.616 -74.2762 126.762 -74.138 125.958 -73.9532C125.154 -73.7683 124.424 -73.5425 123.836 -73.2962C123.737 -73.2525 123.616 -73.2115 123.48 -73.1759C123.344 -73.1403 123.198 -73.1109 123.05 -73.0898C121.598 -72.9385 120.904 -72.6223 120.194 -72.2347C119.716 -72.0365 119.1 -71.8605 118.431 -71.7312C117.148 -71.5063 115.891 -71.2175 114.664 -70.9682C114.289 -70.8851 113.899 -70.8167 113.51 -70.7659C112.227 -70.6041 110.936 -70.3779 109.703 -70.0989C109.3 -70.0279 108.914 -69.9341 108.576 -69.8251C108.239 -69.7161 107.959 -69.5953 107.762 -69.4726C108.067 -69.3381 108.232 -69.1684 108.246 -68.9737C108.3 -68.8457 107.399 -68.5849 106.973 -68.3958C106.547 -68.2067 107.382 -68.2958 107.666 -68.2768C108.829 -68.2402 109.045 -68.1636 108.348 -67.7439C108.115 -67.612 107.961 -67.4799 107.894 -67.356C107.828 -67.2321 107.85 -67.119 107.961 -67.0237C108.126 -66.6291 108.629 -66.3052 108.975 -65.9193C108.438 -65.6651 107.542 -65.3936 107.444 -65.0789C107.397 -65.009 107.298 -64.9351 107.154 -64.8623C107.01 -64.7895 106.824 -64.7198 106.611 -64.6581C106.048 -64.5249 105.536 -64.3656 105.114 -64.1925C104.693 -64.0195 104.374 -63.8374 104.182 -63.6602C104.119 -63.587 103.967 -63.5093 103.757 -63.4426C103.546 -63.376 103.292 -63.3255 103.047 -63.3011C102.753 -63.2712 102.49 -63.2751 102.313 -63.3121C102.135 -63.3491 102.056 -63.4164 102.091 -63.5C102.084 -63.657 102.123 -63.8207 102.207 -63.9896C102.158 -64.1069 102.109 -64.2242 102.303 -64.4185C101.427 -64.3476 100.506 -64.2055 99.642 -64.0077C98.7778 -63.8098 98.003 -63.5638 97.4017 -63.2964C96.7371 -63.0197 96.1242 -62.7292 95.3874 -62.4055C95.5393 -62.0429 95.5394 -62.0429 93.9714 -61.4019L85.6546 -61.0893L83.95 -60.6648C82.3604 -60.2947 81.9825 -60.32 80.9841 -60.5114L80.312 -60.6912C78.9005 -60.4439 77.2751 -60.1591 76.3923 -60.6225C76.1056 -60.3205 75.9185 -60.219 75.9836 -60.1732C76.405 -59.7275 77.1372 -59.3493 78.1514 -59.0536C78.4099 -58.9844 78.5919 -58.8789 78.8932 -58.8173C79.8647 -58.4692 80.09 -57.9313 79.5231 -57.3137C79.2417 -57.0404 78.833 -56.7605 78.3101 -56.4831C79.0754 -56.0981 80.0893 -55.7791 81.3244 -55.5347C82.3727 -55.3456 83.2358 -55.0923 83.8893 -54.7822C84.476 -54.4695 85.3546 -54.2345 86.4747 -54.0906C87.0428 -54.0294 87.4574 -53.9087 87.6772 -53.7404C87.7426 -53.285 87.5923 -52.7974 87.2296 -52.2885C87.1613 -52.1336 86.9672 -51.9663 86.6626 -51.7997C86.358 -51.6332 85.9512 -51.4719 85.4739 -51.3284C85.4739 -51.3284 85.2441 -51.2195 85.1337 -51.1543C85.0416 -50.6028 85.3861 -50.1168 86.144 -49.7289C86.2682 -49.6188 86.5223 -49.5393 86.879 -49.499C87.2357 -49.4586 87.6814 -49.4589 88.1682 -49.4998C89.1967 -49.5655 90.1574 -49.5736 91.152 -49.6105C92.2238 -49.6627 93.1679 -49.6216 93.885 -49.4914C94.602 -49.3612 95.0656 -49.1469 95.2268 -48.8708C95.2373 -48.7926 95.2686 -48.7178 95.3206 -48.6469C95.3509 -48.6103 95.3673 -48.571 95.3697 -48.5296L93.0855 -47.6257L95.6696 -47.2658C95.8215 -46.9033 94.5811 -46.6859 93.9593 -46.4167L94.3436 -46.2666C94.8383 -46.1816 95.5048 -46.3441 96.108 -46.4384L96.7069 -46.5433L96.7784 -46.3727C97.1512 -46.1404 98.5109 -46.4015 99.0413 -46.2312C99.5718 -46.0609 99.1932 -45.8687 98.3984 -45.6836C97.8459 -45.5461 97.2526 -45.4364 96.6632 -45.3629C96.0737 -45.2893 95.5034 -45.2538 94.9952 -45.259C94.6917 -45.2773 94.44 -45.3188 94.2553 -45.3812C93.1827 -45.6469 91.9977 -45.8753 90.7093 -46.0648C89.7214 -46.2349 88.4844 -46.3073 87.0851 -46.2768C86.6745 -46.2896 86.1794 -46.2493 85.6866 -46.163C85.1937 -46.0766 84.7349 -45.9498 84.3906 -45.8047L83.666 -45.7807C83.666 -45.7807 83.2696 -45.6311 83.3257 -45.6066C83.6015 -45.1635 83.281 -44.6217 82.4119 -44.0615L83.1677 -44.0108C84.2479 -44.0627 83.5629 -43.7252 83.7244 -43.559C84.4917 -43.5904 85.4889 -43.7308 85.8527 -43.5198L86.3973 -43.5351L86.1834 -43.4976L85.9248 -43.5668L84.9091 -43.2514C85.3905 -43.1984 85.739 -43.1336 86.1642 -43.1051C86.399 -43.0803 86.586 -43.0364 86.7138 -42.9762C86.8416 -42.916 86.9076 -42.8406 86.9079 -42.7546C86.9067 -42.6223 87.0333 -42.511 87.2757 -42.4312C87.518 -42.3515 87.8681 -42.306 88.2925 -42.299C88.7987 -42.2962 89.0886 -42.1523 89.3854 -42.1013L88.0957 -41.2344C88.0957 -41.2344 88.7373 -41.3468 88.388 -41.194L88.3434 -41.3007L87.562 -41.0836C86.9989 -40.8934 86.6051 -40.8473 86.2725 -40.9836C85.94 -41.1199 86.0158 -40.9386 85.8562 -40.9908C85.9143 -40.8522 86.2762 -40.7553 86.5865 -40.6723C86.9452 -40.6072 87.35 -40.5592 87.7943 -40.5291C86.9936 -39.9196 86.9554 -39.9014 88.1249 -39.74C89.2944 -39.5787 88.8908 -39.3363 89.8695 -39.3017C90.8481 -39.2671 89.7354 -38.8547 89.0804 -38.7743C88.5948 -38.7214 88.0997 -38.639 87.629 -38.5329C87.1584 -38.4267 86.7233 -38.2992 86.3538 -38.1592L86.5503 -37.69C86.8384 -37.7288 87.1269 -37.7794 87.4058 -37.8399C88.3539 -38.0976 89.2163 -38.3402 90.0596 -38.1904L89.658 -37.8339L92.6016 -38.0406C92.5254 -37.7734 92.0768 -37.4691 91.3503 -37.1918C91.4597 -37.0395 91.5269 -36.8792 91.5513 -36.7119C91.6004 -36.5946 91.891 -36.6684 92.0799 -36.6558C92.7541 -36.6362 93.3072 -36.5567 93.6909 -36.4243C94.0746 -36.2919 94.2771 -36.1108 94.2803 -35.8967C94.3563 -35.7154 93.32 -35.3393 92.6721 -35.3516C91.0542 -35.3155 89.3048 -35.176 87.5184 -34.9408C86.4293 -34.9103 86.2755 -35.3869 84.4835 -35.0615C84.4479 -34.8414 84.6775 -34.6632 85.1375 -34.5538C85.5974 -34.4444 86.2628 -34.4098 87.0332 -34.4552C86.5952 -33.9664 84.1693 -33.839 84.062 -33.328C84.6661 -33.364 85.312 -33.449 85.9359 -33.5743C86.5598 -33.6997 87.14 -33.8612 87.6191 -34.0428C87.7225 -34.0875 87.8524 -34.1288 87.9966 -34.1627C88.1409 -34.1967 88.295 -34.2222 88.4444 -34.237C88.5939 -34.2518 88.734 -34.2553 88.8518 -34.2473C88.9695 -34.2392 89.0612 -34.2199 89.1182 -34.191C88.7824 -34.0062 88.4126 -33.7926 87.9913 -33.5929C87.5699 -33.3932 87.4684 -33.3067 87.1646 -33.2649C84.8976 -32.8677 83.8199 -32.1524 81.8587 -31.6828C81.3454 -31.5929 81.2816 -31.307 81.7272 -31.3393C82.1511 -31.3716 82.5348 -31.3674 82.8355 -31.3271C83.1362 -31.2868 83.342 -31.212 83.4297 -31.1111C83.7587 -30.9934 84.1683 -30.8997 84.6483 -30.8324C82.637 -30.0983 80.2388 -29.4497 77.679 -28.9474C77.1942 -28.8482 76.6885 -28.7876 76.2361 -28.7747C74.8072 -28.774 73.2909 -28.7157 71.7177 -28.6011C71.1597 -28.5699 70.6442 -28.5728 70.199 -28.6098C68.7391 -28.6973 67.5797 -28.5057 66.5205 -27.9652L64.7675 -27.1087C64.8255 -26.97 65.1198 -26.8156 65.3463 -26.6034L63.977 -26.146L53.5269 -27.1995L51.4291 -26.1795L48.4209 -26.2362C48.1904 -26.2067 47.9587 -26.1661 47.7367 -26.1163C47.1283 -25.8151 46.6526 -25.5257 45.9924 -25.2384C45.3323 -24.951 44.1533 -24.9161 43.331 -24.5775C42.5087 -24.2388 41.6852 -24.2319 40.6676 -24.0307C40.5719 -23.7686 40.6707 -23.5326 40.958 -23.3376C41.0518 -23.1136 41.5689 -22.9753 41.6582 -22.762C41.6484 -22.5465 41.8405 -22.3635 42.2172 -22.2296C42.594 -22.0958 43.1435 -22.0153 43.8158 -21.9955C45.6985 -21.5365 47.9689 -21.2097 50.5583 -21.0249C50.7857 -21.0115 50.9743 -20.9805 51.1123 -20.9338C51.2504 -20.8871 51.3349 -20.8257 51.3606 -20.7535C51.3571 -20.5443 51.5297 -20.3635 51.866 -20.2244C52.2023 -20.0852 52.6939 -19.9913 53.3044 -19.9494C53.4671 -19.941 53.5898 -19.9147 53.6574 -19.8739C53.889 -19.8475 54.0578 -19.7971 54.1473 -19.7275C54.2368 -19.6579 54.244 -19.5714 54.1684 -19.4765C54.0928 -19.3815 53.9368 -19.2813 53.7156 -19.1855C53.4943 -19.0896 53.2152 -19.0014 52.9052 -18.9294C52.4557 -18.8134 51.9965 -18.7024 51.5295 -18.5968C51.5563 -18.5328 52.0197 -18.5225 51.9521 -18.4648C51.7691 -18.2808 51.7268 -18.1085 51.8283 -17.9614C51.9297 -17.8142 52.1723 -17.6964 52.5368 -17.6172L50.0393 -16.1266C48.5233 -15.9201 47.0362 -15.5699 45.8603 -15.1426C45.8587 -15.0726 45.9264 -15.0139 46.0566 -14.9724C46.1868 -14.9309 46.3748 -14.9081 46.602 -14.9062C47.2117 -14.8757 47.7875 -14.8164 48.4444 -14.7827C48.8459 -14.7575 49.18 -14.702 49.4274 -14.6196C49.6747 -14.5372 49.8303 -14.4294 49.8851 -14.3025L48.4187 -13.748C48.8886 -13.6128 49.2371 -13.548 49.5473 -13.465C49.3716 -13.2907 49.0692 -13.1105 48.6637 -12.9382C48.2582 -12.7659 47.7604 -12.6063 47.2088 -12.4715C47.0609 -12.4437 46.9101 -12.4234 46.7651 -12.4118C46.6202 -12.4002 46.484 -12.3974 46.3649 -12.4038C45.2292 -12.5939 43.9007 -12.2582 42.6105 -11.9406C41.3203 -11.6229 40.6199 -11.4315 39.6674 -11.1845L37.8448 -11.1513C37.3836 -11.0344 36.9719 -10.8969 36.6429 -10.7498C36.3139 -10.6027 36.0767 -10.4501 35.9501 -10.3043C36.0484 -10.0697 36.9127 -10.1982 37.4279 -10.174C38.6501 -10.028 40.257 -10.0592 41.9821 -10.2623C42.4098 -10.3372 42.8484 -10.2767 43.2646 -10.2695C44.1625 -10.2404 45.0254 -10.1928 45.8493 -10.1272C46.392 -10.0662 46.8991 -9.99058 47.3674 -9.901C47.4925 -9.60243 45.523 -9.37182 46.6408 -9.22428C46.2559 -9.15684 46.1116 -9.06289 45.9138 -9.09689C44.6458 -8.90299 43.3965 -8.80713 42.3107 -8.82043C40.227 -8.86161 37.8611 -8.72556 35.4065 -8.42342C32.7571 -8.1104 30.2156 -7.97896 27.9917 -8.03994C27.1447 -8.04351 26.198 -7.97942 25.2237 -7.85255C24.0731 -7.67679 22.9306 -7.56631 21.8702 -7.52824C21.5191 -7.5269 21.128 -7.49698 20.7286 -7.44093C20.3292 -7.38488 19.933 -7.30428 19.572 -7.20569C19.6033 -7.13105 19.9473 -7.07686 19.8707 -7.04054C18.7733 -6.48198 18.3283 -5.90039 16.639 -5.3297C15.4842 -5.12736 14.1583 -4.89504 13.4031 -5.16334C12.6479 -5.43164 12.9186 -5.6622 14.4214 -6.34902C14.0952 -6.35892 13.7024 -6.32683 13.3116 -6.25835C12.9207 -6.18987 12.5566 -6.08934 12.2828 -5.97431L10.983 -5.46042L9.81158 -4.96902C9.91432 -4.72375 9.99473 -4.53181 10.0796 -4.32921C10.2137 -4.11399 10.0665 -3.85206 9.65884 -3.58016C9.41277 -3.43168 9.19865 -3.2832 9.01838 -3.136C8.28604 -2.54734 8.07398 -1.99097 8.40596 -1.52925C9.0421 -0.86538 9.92788 -0.254571 11.0531 0.296182C12.2417 0.831925 12.8921 1.50775 13.8714 2.09163C14.3708 2.3575 14.9774 2.59582 15.6848 2.80405C17.0266 3.26716 18.4968 3.70779 19.8431 4.18157C21.1894 4.65535 22.7094 4.99567 24.2044 5.38615C26.4305 5.84958 28.8367 6.24982 31.4096 6.58465C33.0017 6.878 34.6366 7.16387 36.1093 7.50104C37.8487 7.8811 39.892 8.15404 42.1885 8.31306C44.2168 8.50342 46.029 8.78491 47.5904 9.15219C47.7541 9.19191 47.8834 9.24247 47.9745 9.30236C48.2557 9.6769 49.0436 9.94085 50.2178 10.0539C50.1464 10.1636 50.0552 10.2751 49.9445 10.388C49.7816 10.5225 49.7476 10.6484 49.8472 10.7493C49.9468 10.8502 50.1752 10.9215 50.5029 10.954C51.4422 11.0468 52.2229 11.2043 52.8101 11.4197C53.0258 11.4737 53.1595 11.5524 53.1999 11.649C53.2404 11.7456 53.1864 11.8571 53.0424 11.9742C52.9148 12.0947 52.9054 12.2055 53.0155 12.2923C53.1255 12.3791 53.3499 12.438 53.6596 12.4612C54.4546 12.5753 55.3059 12.667 56.208 12.7358C58.1275 12.8877 60.3601 12.8859 62.7711 12.7305C63.0277 12.6855 63.2863 12.7547 63.5857 12.7023C65.2906 12.5282 66.8741 12.5012 68.1443 12.6246C69.6337 12.6727 71.1907 12.6632 72.7611 12.6856C75.03 12.6706 77.1229 12.7621 78.9815 12.9578C81.1061 12.7687 82.2998 13.0975 84.093 13.1038C85.7486 13.1376 87.3178 13.2186 88.7857 13.3461C91.1522 13.5152 93.5097 13.663 95.8423 13.861C98.0306 13.9554 100.045 14.1357 101.853 14.3989C102.545 14.5179 103.799 14.3326 104.271 14.5819C104.742 14.8312 105.694 14.8018 106.464 14.8845L108.891 15.0887C109.308 15.1373 109.767 15.1681 110.261 15.1807C112.517 15.1973 114.08 15.5302 116.174 15.5981L116.388 15.5606C120.107 16.0555 124.363 16.327 129.031 16.3674C131.757 16.5192 134.738 16.5119 137.632 16.6231C138.322 16.8456 139.951 16.5715 140.817 16.7746C141.683 16.9778 143.096 16.8446 144.212 16.878C145.328 16.9114 146.419 16.995 147.611 16.9921C148.647 16.993 149.521 17.0837 150.155 17.256C151.602 17.5408 153.365 17.7082 155.367 17.7507C158.015 17.8248 160.519 17.9927 163.212 17.9558C163.173 18.1633 163.339 18.3399 163.691 18.4673C164.042 18.5947 164.568 18.6684 165.214 18.6808C168.094 18.76 170.706 18.9663 173.624 19.0274L174.404 19.0279L183.132 19.1471C185.483 19.1701 187.748 19.2081 190.147 19.2342C191.045 19.0769 191.067 19.3478 191.688 19.2962C191.862 19.1627 192.067 19.1039 192.372 19.1762L192.439 19.3362L202.399 19.5484C206.299 19.7035 210.401 19.7501 214.67 19.6876C215.683 19.7033 216.628 19.7563 217.491 19.8458C218.291 19.8784 219.125 19.8929 219.988 19.889C221.156 19.8487 222.297 19.8283 223.406 19.8281C226.324 19.8891 229.387 19.8562 232.582 19.8114C235.777 19.7667 238.198 19.8462 241.042 19.8401C242.968 19.8346 244.885 19.8077 246.878 19.7446C247.83 19.7151 249.003 19.5554 249.989 19.4972C250.974 19.439 251.296 19.4398 251.426 19.5315C251.855 19.7882 252.933 19.6222 253.795 19.5971C255.476 19.5544 255.715 19.4668 256.171 18.8031L254.109 18.5921C253.603 18.5241 252.968 18.5121 252.263 18.5574C251.558 18.6027 250.808 18.7038 250.085 18.8508C249.8 18.9138 249.503 18.9636 249.21 18.9973C248.917 19.031 248.633 19.0479 248.377 19.0471C246.296 19.0111 244.244 18.9356 242.244 18.874L241.951 18.8336L241.933 18.2417C242.198 18.1836 242.472 18.1355 242.746 18.0993L252.777 17.7152C255.079 17.6209 257.469 17.4081 259.729 17.3213C261.988 17.2345 263.205 17.1815 264.958 17.0918C265.698 17.0407 266.452 16.9736 267.216 16.8909C267.171 16.8339 267.146 16.7733 267.14 16.7096C267.099 16.6136 267.046 16.4857 267.37 16.3831C267.724 16.2382 268.197 16.1145 268.694 16.0366C269.162 15.9852 269.615 15.956 270.035 15.9504C272.07 15.9008 274.394 15.5881 276.511 15.079L277.251 15.4188C280.43 15.2279 283.657 15.0402 286.979 14.8589C287.644 14.8094 288.342 14.7145 289.021 14.5813C289.748 14.4539 290.417 14.1879 291.182 14.0423C291.938 13.9376 292.69 13.8559 293.422 13.7987C293.223 13.7113 292.962 13.6414 292.646 13.5913C292.335 13.5737 292.108 13.519 291.999 13.4353C291.889 13.3516 291.903 13.2431 292.038 13.1255C292.274 12.9238 292.379 12.7338 291.863 12.7096C291.387 12.6636 291.047 12.564 290.882 12.4226C290.717 12.2812 290.734 12.1038 290.932 11.9113C291.019 11.7988 291.08 11.6887 291.115 11.5816L291.329 11.5441C292.035 11.1458 293.444 11.002 294.455 10.676C294.932 10.5815 295.426 10.5271 295.859 10.5215C296.978 10.4514 298.067 10.4209 299.224 10.3327C299.776 10.2921 300.354 10.2181 300.923 10.115C301.736 9.97263 301.821 9.95765 302.293 9.44002C301.56 9.44907 300.979 9.37173 300.649 9.22111C300.318 9.07049 300.257 8.85586 300.478 8.61349C301.082 8.08404 301.721 7.52578 304.455 7.14961C303.564 7.13107 302.705 7.09422 301.884 7.03928C301.645 7.02744 301.466 6.98854 301.371 6.9278C301.277 6.86706 301.27 6.78736 301.353 6.69938C301.436 6.6114 301.605 6.51931 301.836 6.43548C302.067 6.35164 302.35 6.28006 302.647 6.23027C304.091 5.93076 305.597 5.73031 306.996 5.65147C308.175 5.61658 309.239 5.63614 310.616 5.63524L312.241 5.35046C312.215 5.28648 312.453 5.19887 312.393 5.16371C311.98 4.83545 311.524 4.51468 311.055 4.16192C311.804 3.97145 312.453 3.74151 312.928 3.49841C313.403 3.25531 313.684 3.0089 313.739 2.78742C313.779 2.72061 313.769 2.65971 313.708 2.60906C313.647 2.55842 313.537 2.51923 313.387 2.49432C312.959 2.45149 312.628 2.36966 312.421 2.25514C312.214 2.14062 312.135 1.99647 312.192 1.83379L313.456 1.23459C317.261 0.807045 320.998 0.501589 324.598 0.323903L327.847 0.189524C328.239 0.0292748 328.118 -0.0410461 327.749 -0.0450773C327.38 -0.0491014 326.343 -0.00469204 325.618 0.0192492C324.992 0.0506825 324.437 0.0300431 324.005 -0.0406897C323.573 -0.11142 323.28 -0.229845 323.153 -0.384474L324.244 -1.06783C324.191 -1.19579 324.115 -1.37708 323.523 -1.36496C323.119 -1.37978 322.821 -1.44419 322.678 -1.54782C322.534 -1.65144 322.554 -1.78822 322.733 -1.93615C322.76 -2.04315 322.719 -2.14059 322.612 -2.22407C321.737 -2.23097 320.866 -2.22721 320.072 -2.25976C319.702 -2.27056 319.39 -2.31019 319.156 -2.37593C318.923 -2.44168 318.774 -2.53197 318.719 -2.64073C318.69 -2.74688 318.76 -2.8678 318.923 -2.99371C319.085 -3.11962 319.336 -3.24702 319.655 -3.3656C320.899 -3.5123 322.038 -3.51419 322.821 -3.37085C323.1 -3.25851 323.548 -3.19714 324.106 -3.19483C324.664 -3.19253 325.307 -3.24941 325.948 -3.35795C326.682 -3.48308 327.415 -3.53807 328.015 -3.51305C328.615 -3.48802 329.041 -3.38459 329.219 -3.22139C329.973 -3.28482 330.641 -3.33325 331.301 -3.40302C332.079 -3.49101 332.814 -3.51694 333.427 -3.478C334.408 -3.45049 335.466 -3.46659 336.575 -3.52591C339.773 -3.67412 342.975 -3.81167 346.071 -3.87341C346.89 -3.89101 347.599 -3.84347 348.409 -3.8824C349.219 -3.92133 349.86 -3.81614 350.873 -4.02799C351.066 -4.06091 351.26 -4.08207 351.44 -4.08977C351.62 -4.09748 351.781 -4.09153 351.91 -4.0724C353.689 -3.90487 355.775 -3.88118 358.046 -4.00278C361.155 -4.03254 364.38 -4.11677 367.494 -4.13585C368.407 -4.11943 369.27 -4.07538 370.074 -4.00419C370.686 -3.96118 371.327 -3.93204 371.993 -3.91692C372.504 -3.90338 372.992 -3.94318 372.906 -3.7106C372.82 -3.47801 373.585 -3.62357 374.026 -3.66652C375.542 -3.7793 377.091 -3.93197 378.656 -4.12284C380.198 -4.33026 381.709 -4.45097 383.098 -4.47772C384.102 -4.49331 385.137 -4.43424 386.427 -4.75187C386.378 -4.86917 386.329 -4.98648 386.048 -5.10896C387.1 -5.44597 388.301 -5.73593 389.55 -5.95487C390.8 -6.17381 392.062 -6.31542 393.234 -6.36799L394.849 -7.00582C395.246 -7.08072 395.653 -7.13527 396.042 -7.16615C396.432 -7.19702 396.797 -7.20359 397.115 -7.18543C397.361 -7.17619 397.661 -7.19989 397.959 -7.25221C398.258 -7.30452 398.535 -7.38193 398.741 -7.47022C399.047 -7.58254 399.422 -7.6794 399.817 -7.74872C400.213 -7.81804 400.612 -7.85673 400.965 -7.85991C402.074 -7.92929 403.259 -8.08945 404.397 -8.32401C404.693 -8.46152 404.878 -8.60359 404.93 -8.73269C404.982 -8.8618 404.898 -8.97228 404.69 -9.05055C404.353 -9.18878 404.165 -9.36488 404.135 -9.56818C404.105 -9.77148 404.234 -9.99777 404.516 -10.2333C404.66 -10.378 404.708 -10.5149 404.657 -10.6359C404.606 -10.7568 404.458 -10.8593 404.221 -10.9371C403.335 -11.2971 403.572 -11.4988 405.021 -12.096C405.256 -12.1956 405.54 -12.2887 405.854 -12.3693C406.168 -12.4499 406.505 -12.5164 406.845 -12.5644C407.641 -12.6617 408.427 -12.7341 409.188 -12.7803C409.615 -12.8553 410.054 -12.7948 410.547 -12.8239C413.011 -12.9695 413.372 -13.2044 414.17 -13.7105L414.751 -14.0756C415.83 -14.3714 417.01 -14.6171 418.205 -14.7949C419.401 -14.9728 420.583 -15.0784 421.666 -15.1041C422.097 -15.106 422.592 -15.1566 423.075 -15.2479C424.649 -15.5274 426.242 -15.7208 427.75 -15.8152C428.69 -15.8684 429.703 -16.0061 430.667 -16.2116C431.632 -16.4171 432.507 -16.6819 433.187 -16.9739C433.799 -17.2371 434.599 -17.4732 435.475 -17.6495C436.502 -17.8294 436.597 -18.0407 436.024 -18.2035C435.451 -18.3663 434.49 -18.5758 433.638 -18.747C433.342 -18.8051 433.158 -18.8997 433.108 -19.0203C433.057 -19.1408 433.142 -19.2824 433.352 -19.4294C433.488 -19.681 433.511 -19.9198 433.422 -20.1399C433.375 -20.2313 433.407 -20.3362 433.518 -20.4474C433.629 -20.5586 433.816 -20.6736 434.065 -20.7846C434.314 -20.8955 434.621 -20.9999 434.964 -21.0906C435.307 -21.1814 435.679 -21.2564 436.054 -21.3106C437.636 -21.5879 439.176 -21.8577 440.79 -22.0604C441.466 -22.1559 442.142 -22.2742 442.8 -22.4126C444.148 -22.7547 445.59 -23.0385 447.042 -23.2473C447.731 -23.3407 448.405 -23.504 448.917 -23.7018C450.534 -24.2349 452.024 -24.7953 453.359 -25.373C453.681 -25.5521 454.103 -25.7269 454.597 -25.8864C455.091 -26.0459 455.647 -26.1865 456.231 -26.2996C456.701 -26.382 457.084 -26.5636 457.447 -26.6844C457.711 -26.9641 457.739 -27.2228 457.529 -27.4363C457.319 -27.6498 456.878 -27.811 456.247 -27.9049C455.649 -28.0176 455.089 -28.1484 454.572 -28.2867C453.949 -28.3986 453.208 -28.4658 452.377 -28.4858C451.392 -28.5459 450.664 -28.7175 450.288 -28.9783C452.983 -29.4505 455.545 -30.1284 457.907 -29.9699L459.702 -30.3988C459.63 -30.5694 459.568 -30.7187 459.51 -30.8574C459.083 -31.1097 458.95 -31.4279 459.121 -31.7851C459.262 -31.9579 459.25 -32.1151 459.084 -32.2408C458.918 -32.3666 458.606 -32.4564 458.178 -32.5012C455.644 -32.9614 452.713 -33.2721 450.336 -33.7942C449.591 -33.8923 448.719 -33.9368 447.756 -33.9259C446.825 -33.9573 446.864 -34.193 447.936 -34.4839C448.537 -34.6358 449.15 -34.7815 449.773 -34.9202C452.518 -34.9434 453.636 -34.2465 456.769 -34.4405L458.221 -35.3588C458.613 -35.373 458.994 -35.3786 459.362 -35.3755L464.614 -35.0024C465.051 -34.9837 465.392 -34.9199 465.597 -34.8182C465.802 -34.7165 465.863 -34.5811 465.773 -34.4272C465.738 -34.2389 465.81 -34.0662 465.988 -33.9153C466.102 -33.8097 466.029 -33.6693 465.784 -33.5248C465.232 -33.1991 465.94 -33.1516 466.388 -33.0697C466.502 -33.0618 466.634 -33.0626 466.776 -33.0723C466.918 -33.0819 467.066 -33.1002 467.214 -33.1259C467.361 -33.1517 467.503 -33.1846 467.633 -33.2225C467.763 -33.2605 467.878 -33.3028 467.97 -33.347C468.759 -33.6569 469.448 -33.9837 470.223 -34.3255C469.673 -34.6526 470.321 -35.1896 469.462 -35.4856C469.366 -35.5447 469.327 -35.6167 469.349 -35.6972C469.371 -35.7778 469.452 -35.8651 469.587 -35.9539C469.937 -36.1831 470.103 -36.4065 470.07 -36.6016C470.037 -36.7967 469.804 -36.9566 469.397 -37.0652L469.348 -37.1825C470.422 -37.5768 470.138 -37.9275 470.56 -38.3449L471.593 -38.6175C474.165 -39.2741 474.169 -39.2635 476.383 -39.2393C476.829 -39.4892 476.262 -39.5272 475.837 -39.5557L472.276 -39.8361C469.948 -40.0233 467.552 -40.153 464.952 -40.2238C462.351 -40.2947 459.451 -40.5306 456.763 -40.7006C456.627 -40.7138 456.523 -40.7398 456.46 -40.7765C456.397 -40.8132 456.376 -40.8595 456.399 -40.9116C456.506 -40.9679 456.646 -41.0222 456.809 -41.0705C456.971 -41.1187 457.152 -41.1598 457.339 -41.1906C458.194 -41.3405 459.072 -41.437 459.983 -41.5624L461.683 -41.7801L462.206 -42.0663C462.546 -42.2403 462.778 -42.4528 463.231 -42.5779C463.604 -42.6712 464.009 -42.742 464.404 -42.7829C464.798 -42.8239 465.168 -42.8335 465.475 -42.8108C466.325 -42.7537 467.094 -42.671 467.906 -42.5958C468.718 -42.5206 469.166 -42.4388 469.87 -42.4019C471.301 -42.3851 472.683 -42.3408 474.012 -42.2691C475.131 -42.0995 476.166 -41.8985 477.11 -41.6674C477.7 -41.5761 478.251 -41.4666 479.257 -41.5856C479.734 -41.6936 480.146 -41.8354 480.419 -41.9859C480.692 -42.1364 480.809 -42.2859 480.749 -42.4079C480.695 -42.5035 480.542 -42.5792 480.305 -42.6277C480.067 -42.6763 479.754 -42.6961 479.393 -42.6854C478.383 -42.703 477.449 -42.7622 476.61 -42.8617C475.442 -43.0421 474.021 -43.1199 472.428 -43.0905C471.888 -43.0645 471.526 -43.1614 471.054 -43.193C470.581 -43.2247 470.181 -43.3034 469.654 -43.2455C468.018 -43.0961 467.234 -43.325 466.253 -43.4737C465.921 -43.5396 465.716 -43.6461 465.659 -43.7816C465.602 -43.9171 465.696 -44.0762 465.932 -44.2414C466.384 -44.5706 466.938 -44.9016 467.584 -45.2291C467.916 -45.3902 468.342 -45.5431 468.828 -45.6759C469.314 -45.8087 469.847 -45.9179 470.385 -45.9947C470.707 -46.1962 470.879 -46.3944 470.885 -46.5714C470.891 -46.7483 470.731 -46.8984 470.42 -47.008C469.626 -47.2581 468.923 -47.5126 467.145 -47.3728C466.309 -47.3194 465.522 -47.3092 464.816 -47.3425C463.25 -47.3881 461.443 -47.2882 459.566 -47.0522C459.08 -46.9917 458.603 -46.9504 458.148 -46.9296C454.903 -46.7846 451.812 -46.7122 448.711 -46.6611C447.068 -46.6366 445.412 -46.644 443.698 -46.5725C439.677 -46.4174 436.016 -46.4971 432.135 -46.4466C430.102 -46.4206 428.282 -46.5251 426.772 -46.7546C426.477 -46.8315 426.225 -46.9213 426.017 -47.0229C427.018 -47.2895 428.117 -47.5006 429.21 -47.6359C430.303 -47.7713 431.353 -47.8264 432.258 -47.796C432.756 -47.7213 433.399 -47.7077 434.117 -47.7566C434.834 -47.8054 435.597 -47.9149 436.32 -48.0727L434.217 -48.162C432.822 -48.2038 431.393 -48.2167 430.037 -48.2766C427.881 -48.3798 425.884 -48.5449 423.652 -48.6117C421.85 -48.6732 420.238 -48.8302 418.866 -49.0779C417.874 -49.2586 416.742 -49.3867 415.492 -49.4597C414.603 -49.4986 414.603 -49.4986 414.035 -49.8684C414.486 -50.1076 415.069 -50.141 415.618 -50.1456C418.909 -50.2961 422.041 -50.3225 424.951 -50.2242C426.419 -50.2155 427.721 -50.1141 428.795 -49.9249C429.058 -49.8451 429.731 -49.8828 430.271 -49.9088C431.964 -49.9482 433.582 -49.9368 435.106 -49.8746C437.213 -49.7709 439.559 -49.7954 442.054 -49.9474C442.527 -50.1333 441.983 -50.118 441.956 -50.182C440.024 -50.3012 438.13 -50.4387 436.159 -50.5398C435.62 -50.5758 435.044 -50.5936 434.438 -50.5931C432.174 -50.5304 430.287 -50.704 429.042 -51.0898C428.979 -51.2391 428.16 -51.2215 427.798 -51.3183C427.62 -51.4021 427.502 -51.5008 427.446 -51.6114C427.973 -51.887 428.569 -51.8884 429.028 -51.8887C430.36 -51.858 431.642 -51.7997 432.866 -51.7141C434.005 -51.6327 435.265 -51.611 436.612 -51.6494C437.607 -51.6863 438.457 -51.6292 439.461 -51.6448C440.005 -51.6776 440.569 -51.7303 441.14 -51.8017C440.504 -51.9937 439.639 -52.1118 438.607 -52.1477C437.825 -52.2624 436.846 -52.297 436.721 -52.5955C437.091 -52.8091 437.502 -52.8126 437.833 -52.7904C438.521 -52.7912 439.186 -52.7778 439.824 -52.7501C441.177 -52.6894 442.641 -52.6886 444.187 -52.7476C445.001 -52.7697 445.773 -52.763 446.491 -52.7278C448.117 -52.6808 449.676 -52.5763 451.166 -52.5282C454.216 -52.4789 456.999 -52.3026 459.93 -52.2096C460.583 -52.1865 461.168 -52.1059 462.028 -52.2451C462.888 -52.3843 462.926 -52.4025 463.027 -52.4889C463.268 -52.6332 463.341 -52.773 463.231 -52.8794C463.06 -52.9788 462.728 -53.0342 462.293 -53.0356C459.673 -53.1938 457.187 -53.4159 454.852 -53.7006C453.825 -53.7576 452.924 -53.874 452.183 -54.0456C451.594 -54.1637 450.897 -54.242 450.111 -54.2778C448.969 -54.3633 447.778 -54.4258 446.543 -54.4654C445.969 -54.4866 445.48 -54.5499 445.107 -54.6515C444.733 -54.7531 444.482 -54.891 444.367 -55.057L445.881 -55.6084C446.119 -55.634 446.355 -55.6563 446.588 -55.6749L459.15 -55.2778L460.394 -55.2669C461.758 -55.2998 462.091 -55.381 463.385 -56.0197C460.433 -56.17 458.112 -56.608 456.654 -57.29C457.005 -57.3633 457.364 -57.4263 457.724 -57.4773C460.083 -57.6387 462.313 -57.6815 464.328 -57.6043C465.525 -57.5965 466.755 -57.6176 467.991 -57.628C467.629 -57.9424 466.245 -57.8487 465.343 -57.9196C463.188 -58.0305 461.282 -58.2596 459.687 -58.5996C459.137 -58.7322 458.448 -58.817 457.654 -58.8501C456.858 -58.8614 456.194 -58.9417 455.718 -59.0838C455.243 -59.2259 454.97 -59.4255 454.925 -59.6653C454.85 -59.8825 454.688 -60.0843 454.443 -60.2677C454.877 -60.5279 455.567 -60.7771 456.383 -60.9685C457.199 -61.1599 458.085 -61.2804 458.874 -61.3073C460.559 -61.4145 462.307 -61.5899 464.073 -61.8291C464.953 -61.9497 465.815 -62.019 466.605 -62.0323C467.301 -62.0426 468.092 -62.1297 468.858 -62.2804C469.624 -62.4311 470.322 -62.6372 470.846 -62.8671C471.554 -63.1512 472.214 -63.4386 472.874 -63.726C473.534 -64.0133 474.3 -64.3765 475.071 -64.7289C475.75 -64.7841 476.412 -64.8195 477.046 -64.8348C477.54 -64.8218 478.117 -64.8603 478.707 -64.9455C479.298 -65.0308 479.879 -65.1593 480.38 -65.3159C480.086 -65.4703 479.753 -65.6066 479.403 -65.7856C479.884 -66.0219 480.233 -66.2629 480.428 -66.4939C480.623 -66.7249 480.661 -66.9411 480.539 -67.1292C480.467 -67.2999 480.99 -67.5861 481.171 -67.8123C481.403 -68.0073 481.447 -68.1894 481.296 -68.3345C481.145 -68.4796 480.807 -68.5811 480.325 -68.6256C479.728 -68.7077 479.241 -68.8314 478.886 -68.9916C478.769 -69.0332 478.709 -69.0901 478.712 -69.1572C478.716 -69.2243 478.782 -69.2994 478.905 -69.3757C479.029 -69.4519 479.205 -69.5269 479.418 -69.5937C479.632 -69.6606 479.875 -69.7171 480.126 -69.7582C480.895 -69.8748 481.659 -69.9503 482.374 -69.9805C483.606 -70.036 484.785 -70.0709 485.912 -70.0852C487.158 -70.1066 488.544 -70.2389 489.929 -70.4686C491.17 -70.6859 492.282 -70.8808 492.888 -71.2961C493.495 -71.7114 494.464 -71.6982 495.21 -72.0005C494.791 -72.2731 494.047 -72.4624 493.052 -72.5495C492.401 -72.5806 491.857 -72.6622 491.456 -72.789C491.055 -72.9159 490.805 -73.0852 490.723 -73.2861L492.987 -74.1291C494.795 -74.526 495.795 -74.2206 497.748 -74.3797L495.736 -74.6909C495.695 -74.7217 495.68 -74.7578 495.691 -74.7975C495.886 -75.427 496.197 -75.5616 498.255 -75.9107L499.41 -76.113L501.238 -76.3531C501.53 -76.4821 501.733 -76.6166 501.825 -76.7432C501.917 -76.8698 501.895 -76.9841 501.762 -77.0745C501.494 -77.2266 501.412 -77.421 501.525 -77.6397C501.702 -77.7846 501.717 -77.9181 501.566 -78.0172C501.416 -78.1163 501.11 -78.1746 500.701 -78.182C500.375 -78.1936 500.35 -78.361 500.173 -78.4558C499.997 -78.5865 499.695 -78.6868 499.288 -78.7498C498.881 -78.8129 498.379 -78.8373 497.816 -78.8212C496.155 -78.8082 494.595 -78.8572 493.164 -78.9675L493.42 -79.0125C491.928 -78.9156 490.533 -78.9039 489.303 -78.9778C488.07 -79.0709 486.488 -79.0112 485.179 -79.0679C484.113 -79.0549 483.301 -79.1837 482.916 -79.427C482.544 -79.6593 481.189 -79.6051 480.152 -79.5607C479.537 -79.532 478.943 -79.5198 478.376 -79.5243C477.615 -79.5769 476.664 -79.5273 475.68 -79.3839C475.385 -79.3398 475.095 -79.3165 474.836 -79.3161C472.336 -79.2558 469.841 -79.1849 467.375 -79.1534C466.806 -79.1716 466.138 -79.1301 465.451 -79.0338C465.162 -78.992 464.881 -78.9747 464.645 -78.9842C460.749 -79.0798 456.351 -78.8359 452.531 -78.9678C452.068 -78.999 451.556 -79.0054 451.008 -78.9871C449.778 -78.9096 448.709 -78.9594 447.964 -79.1291C447.563 -79.2193 447.048 -79.269 446.452 -79.2751C445.857 -79.2811 445.194 -79.2434 444.506 -79.1642C443.362 -79.0593 442.304 -79.048 441.444 -79.1313C439.768 -79.2082 438.006 -79.2399 436.17 -79.226C435.608 -79.2125 435.114 -79.2424 434.726 -79.3134C434.338 -79.3843 434.066 -79.4944 433.933 -79.6352C434.384 -79.8744 434.876 -79.9035 435.344 -79.8825C437.158 -79.937 438.967 -80.0022 440.747 -80.0278C442.34 -80.1012 443.869 -80.1237 445.31 -80.0948C446.026 -80.0623 446.919 -80.1365 447.795 -80.3012C448.868 -80.5099 449.973 -80.6135 450.887 -80.5912C451.565 -80.5857 452.28 -80.6037 453.023 -80.6449C453.498 -80.6946 453.985 -80.7799 454.434 -80.8922C454.612 -80.9409 454.806 -80.9819 455.003 -81.0125C455.201 -81.0431 455.397 -81.0627 455.58 -81.0699C455.762 -81.0772 455.928 -81.072 456.065 -81.0546C456.202 -81.0373 456.308 -81.0082 456.376 -80.9692C457.063 -80.6432 458.601 -80.8096 459.917 -80.8456C461.89 -81.3973 463.358 -81.0708 465.202 -81.3824C465.347 -81.403 465.491 -81.4155 465.624 -81.4191C465.756 -81.4227 465.875 -81.4172 465.973 -81.4031C469.541 -81.2156 473.7 -81.3719 477.446 -81.3071C477.859 -81.2976 478.338 -81.3301 478.83 -81.4008C482.041 -81.8688 485.129 -82.0016 487.489 -81.7734C487.776 -81.7528 488.103 -81.7519 488.454 -81.7708C490.068 -81.9568 491.611 -82.0309 492.955 -81.987C495.061 -82.0012 497.086 -81.9897 499.225 -82.0327C500.7 -82.0939 501.994 -82.0285 502.978 -81.8432C503.009 -81.7685 503.664 -81.849 504.166 -81.8568C504.454 -82.0447 504.705 -82.2144 505.002 -82.381C505.268 -82.5871 505.667 -82.7957 506.17 -82.9925C506.674 -83.1894 507.271 -83.37 507.922 -83.5221C509.034 -83.7169 509.145 -83.9997 508.367 -84.1037C506.361 -84.4479 503.839 -84.5887 500.986 -84.5159C498.601 -84.5101 496.173 -84.4968 493.754 -84.4622C492.343 -84.4324 490.856 -84.3664 489.483 -84.3549C489.02 -84.3295 488.545 -84.2921 488.061 -84.243C487.468 -84.1719 486.892 -84.1332 486.364 -84.1288C484.67 -84.1887 482.779 -84.1366 480.782 -83.9748C480.05 -83.9395 479.348 -83.9277 478.685 -83.9393C477.116 -83.9832 475.416 -83.9509 473.629 -83.8433C472.518 -83.7825 471.441 -83.7508 470.409 -83.7483C470.044 -83.7417 469.747 -83.7927 469.396 -83.7541C466.306 -83.35 464.117 -83.6419 461.336 -83.4865C459.984 -83.4431 458.692 -83.443 457.479 -83.4861C455.112 -83.484 452.679 -83.4397 450.189 -83.3534C446.897 -83.2115 443.846 -83.2607 440.703 -83.2021C440.082 -83.1898 439.483 -83.1919 438.909 -83.2084C436.12 -83.3174 433.09 -83.2943 429.894 -83.1396C429.168 -83.1173 428.516 -83.1446 427.979 -83.2199C427.442 -83.2952 427.031 -83.4168 426.772 -83.5771C426.663 -83.6871 426.733 -83.83 426.971 -83.9782C427.366 -84.1676 427.811 -84.353 428.3 -84.5316L446.093 -85.1309C446.84 -85.1622 447.569 -85.1791 448.275 -85.1814C450.353 -85.1866 452.495 -85.2332 454.691 -85.321C456.86 -85.4035 458.932 -85.3889 461.034 -85.4137C461.653 -85.422 462.288 -85.4416 462.937 -85.4725C467.325 -85.7169 471.604 -85.8662 475.743 -85.9192C477.485 -85.9268 479.366 -86.0389 481.141 -86.0753C482.917 -86.1116 485.344 -86.1249 487.45 -86.1391L493.971 -86.1369C495.253 -86.1442 496.502 -86.1226 497.746 -86.1117C499.256 -86.8913 499.776 -87.074 501.791 -87.4156C502.48 -87.5416 503.182 -87.6168 503.812 -87.6324C505.812 -87.5707 508.322 -87.8273 510.218 -87.7933C511.363 -87.8101 512.334 -87.7235 513.032 -87.5424C513.639 -87.4002 514.332 -87.2877 515.101 -87.2066C517.209 -87.8736 517.395 -88.3068 515.809 -88.4753C515.38 -88.5145 514.788 -88.5024 514.478 -88.5854C514.3 -88.6359 514.057 -88.6648 513.768 -88.6698C513.479 -88.6748 513.152 -88.6558 512.813 -88.6142C511.743 -88.505 510.741 -88.4794 509.906 -88.5398C509.12 -88.6197 508.157 -88.6165 507.109 -88.5305C506.339 -88.3956 505.662 -88.5861 504.997 -88.6411C504.331 -88.6961 503.784 -88.795 502.744 -88.6471C502.554 -88.6177 502.365 -88.6 502.192 -88.5954C502.019 -88.5909 501.866 -88.5996 501.745 -88.6209C500.628 -88.7161 499.296 -88.7061 497.855 -88.5917C495.646 -88.4791 493.573 -88.4748 491.708 -88.5791C490.592 -88.6704 489.64 -88.8322 488.89 -89.0584C488.686 -89.134 488.382 -89.1793 488.009 -89.1901C486.133 -89.1429 484.096 -88.9653 482.029 -88.6688C481.25 -88.55 480.473 -88.4561 479.713 -88.3889C478.151 -88.2398 476.64 -88.1562 475.226 -88.1407C473.17 -88.1382 471.03 -88.0809 468.824 -87.9691C467.463 -87.9068 466.151 -87.8839 464.904 -87.9004C463.623 -87.9082 462.255 -87.8607 460.831 -87.7591C459.416 -87.6763 458.168 -87.724 457.239 -87.8965C456.933 -87.9894 456.686 -88.0998 456.504 -88.2256C458.577 -88.6348 460.721 -88.8428 462.504 -88.8076C463.182 -88.8347 463.744 -88.8074 464.458 -88.9668L464.48 -88.9134C464.622 -88.8788 464.836 -88.8707 465.082 -88.8905C465.328 -88.9103 465.588 -88.9568 465.812 -89.021C465.727 -89.2236 465.647 -89.4155 465.589 -89.5541C464.23 -89.5297 462.911 -89.5317 461.638 -89.5601C460.565 -89.601 459.108 -89.2427 458.179 -89.3776C456.367 -89.2089 455.214 -89.4418 453.589 -89.3746C451.965 -89.3074 450.175 -89.0855 448.55 -89.0183C447.133 -88.9814 445.756 -88.9734 444.428 -88.9943C443.97 -89.0236 443.442 -89.0167 442.876 -88.9741C442.08 -88.8938 441.34 -88.8804 440.741 -88.9353C440.141 -88.9902 439.707 -89.1112 439.486 -89.2844C439.694 -89.4467 439.973 -89.6559 440.296 -89.8726C439.703 -90.0507 438.802 -90.1257 437.727 -90.0864L436.208 -90.095C435.806 -90.0903 435.498 -90.1385 435.349 -90.2295C435.2 -90.3205 435.22 -90.4475 435.406 -90.5841C438.286 -91.2718 438.392 -91.3476 440.506 -90.9053L443.312 -91.1108L443.265 -91.114ZM405.307 -89.2248L405.52 -89.2623L405.307 -89.2248ZM55.5784 -16.0555L55.6276 -15.9382L55.5739 -16.0662L55.1035 -15.9838L55.0722 -16.0584L55.5784 -16.0555ZM123.89 -67.4681C124.555 -67.5961 125.226 -67.7138 125.9 -67.8204C126.077 -67.8369 126.242 -67.8406 126.382 -67.8313C126.521 -67.8219 126.632 -67.7997 126.703 -67.7665C126.757 -67.6385 126.381 -67.5498 126.039 -67.4898C125.607 -67.4091 125.166 -67.3578 124.762 -67.3413C124.357 -67.3247 124.003 -67.3434 123.737 -67.3955L123.35 -67.4422L123.89 -67.4681ZM466.42 -36.2804C465.982 -36.2588 465.567 -36.2553 465.185 -36.2699C463.489 -36.3734 461.865 -36.5238 460.126 -36.6197C457.932 -36.8633 455.41 -36.9624 452.657 -36.9135C451.581 -36.8897 450.672 -36.9686 450.036 -37.1411C449.655 -37.2337 449.164 -37.2879 448.592 -37.3002L441.312 -37.5813C440.862 -37.6397 440.473 -37.7215 440.154 -37.8248C440.796 -37.9373 441.223 -38.0122 441.48 -38.0572C442.013 -38.0698 442.47 -38.0355 442.807 -37.9578C443.169 -37.826 443.781 -37.7738 444.521 -37.8117C445.269 -37.843 445.997 -37.8598 446.704 -37.8622C448.038 -37.8556 449.381 -37.8276 450.72 -37.8104C451.241 -37.4438 452.778 -37.6101 454.095 -37.6462L455.111 -37.6298C458.436 -37.4398 461.611 -37.1783 464.622 -36.8466C465.204 -36.7906 465.705 -36.7011 466.111 -36.5809C466.263 -36.4872 466.312 -36.3704 466.254 -36.2397L466.467 -36.2772L466.42 -36.2804ZM317.979 -1.2291C317.172 -1.20413 316.333 -1.15284 315.472 -1.07601C314.809 -0.997546 314.162 -0.949909 313.557 -0.93502C310.166 -0.852838 306.633 -0.663053 303.005 -0.368194C302.531 -0.323546 302.075 -0.301627 301.655 -0.303307L298.685 -0.378183C297.749 -0.420241 297.731 -0.462899 298.412 -1.02866C298.978 -1.13845 299.55 -1.23861 300.123 -1.32842C300.466 -1.38838 301.021 -1.48579 301.152 -1.39415C301.945 -1.144 303.392 -1.306 304.61 -1.35906C308.134 -1.49575 311.768 -1.69757 315.326 -1.86308C316.078 -1.90353 316.807 -1.92399 317.504 -1.92424C317.937 -1.93271 318.331 -1.91674 318.672 -1.87699C318.771 -1.87293 318.854 -1.86108 318.916 -1.84225C318.977 -1.82342 319.016 -1.79805 319.028 -1.76779C319.041 -1.73753 319.027 -1.70308 318.989 -1.66676C318.951 -1.63043 318.888 -1.59306 318.806 -1.5571C318.514 -1.43114 318.178 -1.31048 317.808 -1.19912L317.979 -1.2291ZM292.165 -83.3424L288.693 -83.4095C288.277 -83.4167 287.924 -83.4922 287.478 -83.4599C285.101 -83.3576 282.9 -83.3861 280.969 -83.5442C280.312 -83.6087 279.542 -83.6216 278.704 -83.5822C276.136 -83.4653 273.713 -83.4605 271.501 -83.5679C270.072 -83.5894 268.734 -83.6618 267.508 -83.784C267.414 -83.8123 267.355 -83.8508 267.336 -83.8968C267.317 -83.9428 267.337 -83.9953 267.397 -84.0505C267.412 -84.0855 267.454 -84.1231 267.52 -84.1607C267.585 -84.1983 267.673 -84.2351 267.777 -84.2686C267.881 -84.302 267.998 -84.3312 268.121 -84.3543C268.244 -84.3774 268.37 -84.3937 268.489 -84.4022C270.038 -84.5675 271.508 -84.6251 272.78 -84.5703C273.959 -84.5047 275.229 -84.4855 276.569 -84.513C277.852 -84.5203 278.722 -84.3064 280.306 -84.4696C280.976 -84.5233 281.568 -84.5056 281.98 -84.4195C282.81 -84.2767 283.968 -84.2688 285.249 -84.3971C286.015 -84.462 286.748 -84.4899 287.418 -84.4796C289.045 -84.4326 290.599 -84.3387 292.107 -84.248C292.582 -84.227 293.09 -84.2241 293.625 -84.2393L301.172 -84.417C302.986 -84.4715 304.795 -84.5367 306.575 -84.5624C308.03 -84.6182 309.385 -84.6007 310.591 -84.5106C311.877 -84.4159 313.279 -84.3775 314.771 -84.396C317.088 -84.3442 319.392 -84.3243 321.914 -84.3313C323.523 -84.327 325.17 -84.3409 326.851 -84.3836C327.701 -84.4385 328.423 -84.3938 328.878 -84.258C329.154 -84.1461 329.805 -84.2372 330.345 -84.2632C333.226 -84.5133 335.927 -84.5726 338.261 -84.4369C338.559 -84.4147 338.886 -84.4067 339.235 -84.413C341.483 -84.4176 343.812 -84.4479 345.969 -84.4483C346.537 -84.4377 347.072 -84.4088 347.566 -84.3619C347.514 -84.2852 347.363 -84.2022 347.145 -84.13C346.927 -84.0577 346.66 -84.0019 346.398 -83.9739C344.357 -83.7599 342.386 -83.6468 340.569 -83.6395C337.544 -83.6667 334.375 -83.6054 331.096 -83.4562C328.552 -83.3058 326.231 -83.3375 324.308 -83.5489C322.805 -83.7066 320.849 -83.6473 318.777 -83.381C317.891 -83.2539 317.03 -83.203 316.313 -83.2354C315.623 -83.278 314.831 -83.2677 313.984 -83.2051C312.198 -83.0862 310.481 -83.0311 308.865 -83.0407C307.286 -83.0845 305.812 -83.2041 304.19 -83.2404C302.568 -83.2766 300.098 -83.2558 298.098 -83.3175C296.098 -83.3791 294.12 -83.3874 292.165 -83.3424ZM436.011 -89.5797C435.828 -89.25 435.179 -89.0448 434.481 -88.9569C432.076 -88.5665 429.697 -88.4004 427.746 -88.4864C426.691 -88.6064 425.286 -88.5602 423.806 -88.3569C422.082 -88.1456 420.471 -88.1105 419.256 -88.2579C418.958 -88.2837 418.73 -88.3381 418.593 -88.4164C418.566 -88.4804 418.517 -88.5977 418.508 -88.619C418.635 -88.6731 418.792 -88.7232 418.965 -88.7655C419.138 -88.8078 419.324 -88.8411 419.507 -88.8629L427.476 -89.2403L428.864 -89.3234C431.4 -89.5409 433.817 -89.6276 436.011 -89.5797ZM420.337 -84.3611C419.094 -83.8227 419.089 -83.8334 418.452 -83.7103C415.378 -83.1991 412.307 -82.9231 409.603 -82.9153C409.002 -82.9168 408.492 -82.9688 408.116 -83.0668C407.923 -83.0801 407.799 -83.1223 407.773 -83.1842C407.748 -83.2462 407.821 -83.3228 407.977 -83.3974L408.966 -83.7767C410.762 -83.9409 412.532 -84.0714 414.266 -84.1673C416.285 -84.2806 418.074 -84.285 420.166 -84.3312L420.337 -84.3611ZM318.128 -3.61313C316.969 -2.87213 316.965 -2.88279 315.025 -2.69167C313.673 -2.55622 312.361 -2.47674 311.129 -2.45555C309.624 -2.43217 308.08 -2.39064 306.579 -2.3566C306.213 -2.33297 305.902 -2.35256 305.708 -2.41157C305.513 -2.47058 305.449 -2.56478 305.527 -2.67589C305.724 -2.79647 306.032 -2.91314 306.402 -3.00691C306.771 -3.10068 307.179 -3.16606 307.561 -3.19241L308.38 -3.21C309.374 -3.24692 310.407 -3.30199 311.368 -3.31008C311.991 -3.27938 312.714 -3.30313 313.478 -3.3795C314.243 -3.45587 315.029 -3.58278 315.775 -3.75027L318.128 -3.61313ZM414.149 -88.6109C413.84 -88.4825 413.49 -88.3596 413.109 -88.2454C411.633 -87.9288 410.071 -87.749 408.729 -87.7412C408.094 -87.7216 407.514 -87.7916 406.868 -87.6899C405.709 -87.5539 404.586 -87.4815 403.56 -87.4765C403.56 -87.4765 403.272 -87.5062 403.177 -87.5126L402.981 -87.9818C403.467 -88.0905 403.974 -88.1793 404.478 -88.2441C406.17 -88.3689 407.833 -88.4542 409.492 -88.5502C411.15 -88.6462 411.729 -88.6904 412.813 -88.7316C413.297 -88.7089 413.745 -88.6685 414.149 -88.6109ZM450.798 -30.281L448.583 -29.3207C447.867 -29.2372 447.197 -29.2221 446.677 -29.2776C446.156 -29.3331 445.813 -29.4562 445.7 -29.6281C445.518 -29.7086 445.499 -29.8278 445.649 -29.9607C445.799 -30.0937 446.105 -30.23 446.503 -30.3412C446.887 -30.473 447.324 -30.5911 447.789 -30.6883C448.254 -30.7854 448.735 -30.8596 449.205 -30.9061L450.798 -30.281ZM432.359 -35.0625C433.807 -35.2254 435.193 -35.2919 436.409 -35.2571C437.176 -35.1619 438.214 -35.1923 439.312 -35.3422C441.308 -35.641 443.232 -35.7237 444.679 -35.5729C444.679 -35.5729 444.732 -35.445 444.978 -35.4078C445.223 -35.3706 444.25 -35.2804 444.037 -35.2429C442.468 -35.1512 440.891 -35.0809 439.527 -35.048C438.68 -35.0494 437.785 -35.0192 436.856 -34.9577C435.578 -34.863 434.366 -34.8323 433.267 -34.8668C433.267 -34.8668 432.842 -34.8954 432.363 -35.0519L432.359 -35.0625ZM277.662 -85.0823C278.354 -85.2631 279.104 -85.4101 279.857 -85.5122C280.609 -85.6143 281.344 -85.6688 282.006 -85.6717C282.514 -85.6812 282.924 -85.6334 283.173 -85.536C283.421 -85.4386 283.494 -85.2972 283.379 -85.134C282.866 -85.0441 282.182 -84.9242 281.797 -84.8567C280.463 -84.8633 279.324 -84.95 277.662 -85.0823ZM148.147 -69.8412C148.702 -69.9868 149.314 -70.0981 149.912 -70.1624C150.51 -70.2267 151.071 -70.2415 151.53 -70.205C151.766 -70.1891 151.606 -70.0237 151.646 -69.9277C151.672 -69.9059 151.672 -69.8789 151.645 -69.8494C151.619 -69.8198 151.566 -69.7889 151.494 -69.7598C151.422 -69.7308 151.332 -69.7047 151.234 -69.6842C151.137 -69.6637 151.035 -69.6497 150.939 -69.6435C150.337 -69.5808 149.768 -69.5621 149.284 -69.5892C148.8 -69.6162 148.416 -69.6881 148.165 -69.7985L148.147 -69.8412ZM139.47 -67.7599C139.556 -67.8458 139.738 -67.9353 139.984 -68.0121C140.231 -68.0888 140.524 -68.1477 140.81 -68.1778C141.315 -68.1818 141.775 -68.158 142.171 -68.1072C142.6 -68.068 142.291 -67.8193 141.71 -67.6717C141.464 -67.6125 141.201 -67.5663 140.943 -67.5368C140.684 -67.5073 140.436 -67.4953 140.22 -67.5018C140.003 -67.5083 139.823 -67.5331 139.694 -67.5742C139.566 -67.6153 139.492 -67.6715 139.479 -67.7385L139.47 -67.7599ZM391.622 -87.6971C392.917 -88.004 393.913 -87.9268 395.009 -88.0502C396.105 -88.1735 396.376 -88.1865 396.229 -87.9891C396.082 -87.7917 395.33 -87.8317 394.86 -87.7493C394.224 -87.6399 393.585 -87.5771 393.013 -87.5679C392.441 -87.5586 391.96 -87.6034 391.622 -87.6971ZM121.84 -35.7578C122.526 -35.8267 123.197 -35.8753 123.845 -35.9031C123.93 -35.8745 123.983 -35.8372 124.002 -35.7932C124.02 -35.7493 124.003 -35.6996 123.952 -35.6472C123.952 -35.6472 123.513 -35.4901 123.256 -35.4451C122.311 -35.2909 122.264 -35.5117 121.84 -35.7578ZM24.9178 -7.15797C24.4537 -6.95074 24.2373 -6.80981 23.8657 -6.71037C23.6951 -6.67586 23.5186 -6.65077 23.3495 -6.637C23.1804 -6.62322 23.0231 -6.62111 22.889 -6.63081C22.7257 -6.69052 22.6874 -6.78187 22.7818 -6.88673C22.7818 -6.88673 23.2547 -7.07261 23.4348 -7.08126C23.9484 -7.12517 24.4462 -7.15093 24.9178 -7.15797ZM413.659 -89.4521C414.643 -89.6245 415.584 -89.7894 416.265 -89.5882C414.703 -89.3717 414.703 -89.3717 413.659 -89.4521ZM397.726 -87.4845C398.719 -87.8531 399.302 -87.8866 399.779 -87.8442C399.88 -87.8336 399.947 -87.8098 399.97 -87.7765C399.992 -87.7432 399.969 -87.7023 399.904 -87.6598C399.839 -87.6173 399.735 -87.5757 399.608 -87.5411C399.482 -87.5066 399.339 -87.4811 399.202 -87.4684C398.684 -87.4578 398.19 -87.4632 397.726 -87.4845ZM346.599 -87.3286C346.577 -87.3819 346.55 -87.4459 346.807 -87.4909C346.874 -87.5137 346.953 -87.5333 347.035 -87.5478C347.118 -87.5623 347.201 -87.5711 347.277 -87.5733C347.277 -87.5733 347.304 -87.5093 347.322 -87.4667L346.599 -87.3286ZM311.096 1.19024L311.667 1.23894L311.41 1.2839L310.733 1.31101L311.096 1.19024ZM109.921 -68.5918C110.135 -68.6293 110.349 -68.6668 110.38 -68.5921C110.425 -68.5806 110.453 -68.5639 110.462 -68.5435C110.47 -68.5231 110.459 -68.4996 110.429 -68.4748C110.429 -68.4748 110.13 -68.4224 110.001 -68.3999L109.921 -68.5918ZM143.228 -67.9948C143.369 -67.9991 143.495 -67.9941 143.601 -67.9801L143.628 -67.9162L143.2 -67.8412L143.228 -67.9948ZM433.488 -52.7503C433.653 -52.7891 433.829 -52.8198 434.001 -52.8402L434.215 -52.8777C434.215 -52.8777 433.986 -52.7687 433.857 -52.7462C433.729 -52.7237 433.625 -52.7514 433.488 -52.7503Z" fill="#FFBE21"/>
</g>
</svg>
