<svg width="59" height="48" viewBox="0 0 59 48" fill="none" xmlns="http://www.w3.org/2000/svg">
<path fill-rule="evenodd" clip-rule="evenodd" d="M22.9277 11.5976C23.858 10.6018 24.9077 9.70873 26.0114 8.95452C28.17 7.47917 31.4837 5.99696 34.65 5.6092C36.8204 5.34341 38.921 5.59506 40.5607 6.66734C43.6839 8.70971 44.6861 12.732 44.2847 17.0736C43.9919 20.2401 42.9579 23.5714 41.5119 26.3738C43.3328 24.9806 45.7304 23.6087 48.1375 23.0667C50.8356 22.4568 53.5412 22.878 55.527 25.3563C59.677 30.537 58.4162 36.1432 54.9017 40.483C51.4488 44.7457 45.8025 47.7592 41.1212 47.8793C40.8735 47.8849 40.6679 47.6768 40.662 47.4143C40.6562 47.1518 40.8522 46.9335 41.0997 46.928C45.56 46.812 50.9318 43.9251 54.2215 39.8626C57.4493 35.8772 58.6549 30.7302 54.8438 25.9739C53.0947 23.7911 50.7003 23.4593 48.3237 23.9963C45.8512 24.5553 43.393 26.0425 41.6222 27.4699C41.1425 27.8556 40.6581 28.2387 40.1786 28.6292C38.9666 30.4195 37.5819 31.821 36.1612 32.5838C35.8082 32.7719 35.6136 32.5354 35.5621 32.4662C35.4917 32.3721 35.4171 32.2162 35.4935 31.9955C35.5079 31.954 35.5455 31.8748 35.6174 31.7837C35.716 31.661 35.9396 31.4301 36.0309 31.3193C36.4074 30.8591 36.8275 30.4274 37.2414 30.0076C37.9605 29.2759 38.7355 28.6098 39.5252 27.9643C39.6315 27.804 39.7362 27.6423 39.8394 27.4775C41.6859 24.5216 43.0542 20.6371 43.3923 16.9811C43.7575 13.0303 42.9319 9.33597 40.09 7.47759C38.6107 6.51022 36.7106 6.31481 34.7526 6.55463C31.7262 6.9252 28.5599 8.34441 26.4968 9.75446C25.2367 10.6158 24.0499 11.6669 23.0456 12.8497C22.7123 13.2422 22.4161 13.6784 22.1337 14.1136C22.1027 14.1614 22.0604 14.2317 22.0136 14.3121C21.8952 14.5508 21.768 14.7822 21.6317 15.0056C21.5598 15.1233 21.5072 15.1683 21.4976 15.1764C21.2464 15.3895 21.0395 15.2576 20.9501 15.1873C20.9235 15.1664 20.6535 14.94 20.8191 14.5835C20.8528 14.5113 21.0685 14.1208 21.242 13.8255C22.4925 11.2801 22.622 7.88122 21.6942 5.23866C21.1059 3.56351 20.0898 2.18978 18.6355 1.57687C17.6684 1.16943 16.5125 1.10302 15.1722 1.48848C11.9398 2.41814 9.38397 4.71908 7.17725 7.44597C4.91981 10.2355 3.02808 13.4731 1.17924 16.212C1.03519 16.4255 0.754818 16.4748 0.553639 16.3218C0.352475 16.169 0.306131 15.8715 0.450332 15.658C2.31329 12.8978 4.22211 9.63729 6.49692 6.82602C8.82262 3.95224 11.5311 1.54975 14.9378 0.570004C16.4972 0.121456 17.8416 0.218337 18.9667 0.692372C20.6504 1.4018 21.8536 2.96675 22.5345 4.90613C23.2461 6.93281 23.383 9.36612 22.9277 11.5976Z" fill="#A15842"/>
</svg>
